#!OML:ASF F:\VICON\USERDATA\INSTALL\rory3\rory3.ASF
:FULLY-SPECIFIED
:DEGREES
46
root -0.24328763303167872 16.92516359237254 13.223587928121535 3.8775839335985776 -2.307155992779987 -5.419875009285556
lfemur -31.25404319060087 8.770588525359402 -8.704501596979073
ltibia 114.14480991452773
lfoot 5.165358075275249 -8.52977205225815
ltoes -0.6559478461263639
rfemur -16.065817399378172 8.533858055400321 37.49727457637594
rtibia 55.92776850882066
rfoot -26.186677875235148 -18.28811080117803
rtoes -3.450546780384343
lowerback 18.21701978837344 0.5375220395982623 4.069277558876298
upperback -0.21881906236304366 1.776110353759584 3.1028183566356624
thorax -10.229259557992737 0.7377433581400661 0.5543948627813626
lowerneck -21.478807950716934 -4.089846157020583 -1.666597009828324
upperneck 12.308741406843854 -5.447598607925607 2.339710535498191
head 7.430162767932165 -2.4546870354129657 0.37328985564211337
lclavicle -5.601167316452942e-16 -4.996710162099672e-16
lhumerus -53.56647043547885 -10.906374047807224 98.43821074193707
lradius 109.15094709879341
lwrist 37.2876344108338
lhand -23.515117492591173 3.299462968379123
lfingers 7.125020000000058
lthumb 2.9448261779773137 33.18253309383592
rclavicle -5.601167316452942e-16 -4.996710162099672e-16
rhumerus -38.936634921896896 13.015437233963574 -97.60788602313639
rradius 112.70196677212058
rwrist -17.157879623802813
rhand -20.29895898219439 33.34182828526467
rfingers 7.125020000000058
rthumb 6.049764299173857 10.666486780491512
47
root -0.2482001626884775 16.991275181744875 13.80001975993844 4.085976757655673 -1.1216480610805615 -5.4613214179920195
lfemur -36.59835315468476 8.148888576649055 -9.537582004728883
ltibia 113.77042894762117
lfoot 2.1328758175022515 -7.291021512353644
ltoes -2.44988532016023
rfemur -12.679493321805687 7.483563607898997 37.50504120321842
rtibia 54.599661279776655
rfoot -26.35382617680642 -18.586368806516447
rtoes -8.795592164038135
lowerback 17.94960138005926 0.7016087330709093 4.277507013578584
upperback -0.28939133941723794 2.032698649595747 2.943654386887119
thorax -10.179007206021367 0.841903824584759 0.1560044706660545
lowerneck -21.469995033662492 -4.446970554499189 -1.740786040085611
upperneck 12.007425550854386 -5.95422244304592 2.604200058082663
head 7.350869635751902 -2.6777163424131913 0.41935099722791824
lclavicle -7.820688736974058e-16 -6.715297338132933e-16
lhumerus -55.779716663352715 -11.37673924277523 98.72369444591953
lradius 109.43568054351161
lwrist 37.275255754218925
lhand -23.190501714145714 3.081560944252022
lfingers 7.125020000000057
lthumb 3.2582133953096557 32.955027460664105
rclavicle -7.820688736974058e-16 -6.715297338132933e-16
rhumerus -36.73089095438397 13.370285251682034 -97.35215378617443
rradius 113.57898969501105
rwrist -17.455941195346988
rhand -20.27863369295957 33.40111830410061
rfingers 7.125020000000057
rthumb 6.069657974484567 10.574396098853613
48
root -0.24950794368109053 17.112961433236546 14.310562078317563 4.1454470258137075 -0.028768640054095962 -5.38457727919789
lfemur -40.86453925846695 7.029703248714508 -10.842953357539297
ltibia 111.42772088009485
lfoot -0.331584674258834 -6.278969833425503
ltoes -4.617393885510971
rfemur -9.20301749547858 6.153535741911022 37.19165458355517
rtibia 52.022039533245945
rfoot -24.58164424712086 -17.279237576025476
rtoes -12.91078833029461
lowerback 17.599116359355577 0.8636047894055818 4.50010237825658
upperback -0.39899713238185475 2.275272996995845 2.6960576218359753
thorax -10.13778916149345 0.9369197545756116 -0.34933228855497
lowerneck -21.355155946018453 -4.811150276576029 -1.8350341005983073
upperneck 11.892995816230947 -6.4639356115618885 2.8159088533862127
head 7.316333901970148 -2.907347816280185 0.45096377518996705
lclavicle -1.08339378033616e-15 -9.048469189944012e-16
lhumerus -57.952442008291676 -11.739511491606908 98.84632275071002
lradius 109.65828310972873
lwrist 37.29592555086175
lhand -22.85419508610737 2.732260808432274
lfingers 7.125020000000056
lthumb 3.582885660412628 32.595255876491606
rclavicle -1.08339378033616e-15 -9.048469189944012e-16
rhumerus -35.21130835090844 13.433482277920003 -97.10962358835314
rradius 114.51505340189999
rwrist -17.95161540030558
rhand -20.288540585674415 33.497471638112046
rfingers 7.125020000000056
rthumb 6.060585236440434 10.965799516029486
49
root -0.24000221681986533 17.29359241180974 15.258455389544231 4.158114371053317 1.1019664407945136 -5.189077207629209
lfemur -43.6960421183 5.491160085422053 -12.239668653946216
ltibia 107.2636633559412
lfoot -1.9511642736776573 -5.523884716832459
ltoes -6.834383840617086
rfemur -5.152393074898196 4.823955661982609 36.803845644866286
rtibia 48.761513473601035
rfoot -20.316096280321958 -14.803777057756736
rtoes -15.083096276076715
lowerback 17.180632717756954 1.038872858362934 4.848501928795456
upperback -0.5465949838268185 2.5373402189062517 2.4095250225166063
thorax -10.058526453658756 1.0369068951277542 -0.8935653593717122
lowerneck -21.07194599001874 -5.159532180570725 -1.9239940350558589
upperneck 12.117330693777792 -6.950779750628506 3.0183773123726576
head 7.368442965099135 -3.1314552448291555 0.4793134539848917
lclavicle -1.0239231565190961e-15 -8.58798848641565e-16
lhumerus -59.91398445188963 -11.545868826390475 98.83263339268707
lradius 110.52185435976244
lwrist 37.57794586262827
lhand -22.50527223830455 2.6713874816011014
lfingers 7.125020000000057
lthumb 3.9197393568745786 32.52383594650207
rclavicle -1.0239231565190961e-15 -8.58798848641565e-16
rhumerus -34.009695230827 13.624178700413168 -96.71921729079703
rradius 116.12379687380417
rwrist -18.336541040337327
rhand -20.23249082563214 33.58684118890055
rfingers 7.125020000000057
rthumb 6.115224811192156 12.12342436050657
